<?xml version="1.0" encoding="utf-8" standalone="no"?>
<!DOCTYPE svg PUBLIC "-//W3C//DTD SVG 1.1//EN"
  "http://www.w3.org/Graphics/SVG/1.1/DTD/svg11.dtd">
<svg xmlns:xlink="http://www.w3.org/1999/xlink" width="547.401713pt" height="326.741664pt" viewBox="0 0 547.401713 326.741664" xmlns="http://www.w3.org/2000/svg" version="1.1">
 <metadata>
  <rdf:RDF xmlns:dc="http://purl.org/dc/elements/1.1/" xmlns:cc="http://creativecommons.org/ns#" xmlns:rdf="http://www.w3.org/1999/02/22-rdf-syntax-ns#">
   <cc:Work>
    <dc:type rdf:resource="http://purl.org/dc/dcmitype/StillImage"/>
    <dc:date>2026-06-08T15:56:45.565137</dc:date>
    <dc:format>image/svg+xml</dc:format>
    <dc:creator>
     <cc:Agent>
      <dc:title>Matplotlib v3.10.9, https://matplotlib.org/</dc:title>
     </cc:Agent>
    </dc:creator>
   </cc:Work>
  </rdf:RDF>
 </metadata>
 <defs>
  <style type="text/css">*{stroke-linejoin: round; stroke-linecap: butt}</style>
 </defs>
 <g id="figure_1">
  <g id="patch_1">
   <path d="M 0 326.741664 
L 547.401712 326.741664 
L 547.401712 0 
L 0 0 
z
" style="fill: #faf8f3"/>
  </g>
  <g id="axes_1">
   <g id="patch_2">
    <path d="M 69.500156 131.215245 
L 493.580156 131.215245 
L 493.580156 41.256 
L 69.500156 41.256 
z
" style="fill: #faf8f3"/>
   </g>
   <g id="matplotlib.axis_1">
    <g id="xtick_1">
     <g id="line2d_1">
      <path d="M 137.504874 131.215245 
L 137.504874 41.256 
" clip-path="url(#p0e3a311120)" style="fill: none; stroke: #e6e1d8; stroke-width: 0.8; stroke-linecap: square"/>
     </g>
     <g id="line2d_2"/>
     <g id="text_1">
      <!-- 52 -->
      <g style="fill: #2b2b2b" transform="translate(131.142374 142.313683) scale(0.1 -0.1)">
       <defs>
        <path id="DejaVuSerif-35" d="M 3219 4666 
L 3219 4153 
L 1081 4153 
L 1081 2816 
Q 1244 2928 1461 2984 
Q 1678 3041 1947 3041 
Q 2703 3041 3140 2622 
Q 3578 2203 3578 1478 
Q 3578 738 3136 323 
Q 2694 -91 1894 -91 
Q 1572 -91 1234 -12 
Q 897 66 544 225 
L 544 1131 
L 897 1131 
Q 925 688 1179 453 
Q 1434 219 1894 219 
Q 2388 219 2653 544 
Q 2919 869 2919 1478 
Q 2919 2084 2655 2407 
Q 2391 2731 1894 2731 
Q 1613 2731 1398 2631 
Q 1184 2531 1019 2322 
L 750 2322 
L 750 4666 
L 3219 4666 
z
" transform="scale(0.015625)"/>
        <path id="DejaVuSerif-32" d="M 819 3553 
L 469 3553 
L 469 4384 
Q 803 4563 1142 4656 
Q 1481 4750 1806 4750 
Q 2534 4750 2956 4397 
Q 3378 4044 3378 3438 
Q 3378 2753 2422 1800 
Q 2347 1728 2309 1691 
L 1131 513 
L 3078 513 
L 3078 1088 
L 3444 1088 
L 3444 0 
L 434 0 
L 434 341 
L 1850 1753 
Q 2319 2222 2519 2614 
Q 2719 3006 2719 3438 
Q 2719 3909 2473 4175 
Q 2228 4441 1797 4441 
Q 1350 4441 1106 4219 
Q 863 3997 819 3553 
z
" transform="scale(0.015625)"/>
       </defs>
       <use xlink:href="#DejaVuSerif-35"/>
       <use xlink:href="#DejaVuSerif-32" transform="translate(63.623047 0)"/>
      </g>
     </g>
    </g>
    <g id="xtick_2">
     <g id="line2d_3">
      <path d="M 209.164218 131.215245 
L 209.164218 41.256 
" clip-path="url(#p0e3a311120)" style="fill: none; stroke: #e6e1d8; stroke-width: 0.8; stroke-linecap: square"/>
     </g>
     <g id="line2d_4"/>
     <g id="text_2">
      <!-- 54 -->
      <g style="fill: #2b2b2b" transform="translate(202.801718 142.313683) scale(0.1 -0.1)">
       <defs>
        <path id="DejaVuSerif-34" d="M 2234 1581 
L 2234 4063 
L 641 1581 
L 2234 1581 
z
M 3609 0 
L 1484 0 
L 1484 331 
L 2234 331 
L 2234 1247 
L 197 1247 
L 197 1588 
L 2241 4750 
L 2859 4750 
L 2859 1581 
L 3750 1581 
L 3750 1247 
L 2859 1247 
L 2859 331 
L 3609 331 
L 3609 0 
z
" transform="scale(0.015625)"/>
       </defs>
       <use xlink:href="#DejaVuSerif-35"/>
       <use xlink:href="#DejaVuSerif-34" transform="translate(63.623047 0)"/>
      </g>
     </g>
    </g>
    <g id="xtick_3">
     <g id="line2d_5">
      <path d="M 280.823563 131.215245 
L 280.823563 41.256 
" clip-path="url(#p0e3a311120)" style="fill: none; stroke: #e6e1d8; stroke-width: 0.8; stroke-linecap: square"/>
     </g>
     <g id="line2d_6"/>
     <g id="text_3">
      <!-- 56 -->
      <g style="fill: #2b2b2b" transform="translate(274.461063 142.313683) scale(0.1 -0.1)">
       <defs>
        <path id="DejaVuSerif-36" d="M 2094 219 
Q 2534 219 2771 542 
Q 3009 866 3009 1472 
Q 3009 2078 2771 2401 
Q 2534 2725 2094 2725 
Q 1647 2725 1412 2412 
Q 1178 2100 1178 1509 
Q 1178 888 1415 553 
Q 1653 219 2094 219 
z
M 1075 2569 
Q 1288 2803 1556 2918 
Q 1825 3034 2163 3034 
Q 2859 3034 3264 2615 
Q 3669 2197 3669 1472 
Q 3669 763 3233 336 
Q 2797 -91 2069 -91 
Q 1278 -91 853 498 
Q 428 1088 428 2181 
Q 428 3406 931 4078 
Q 1434 4750 2350 4750 
Q 2597 4750 2869 4703 
Q 3141 4656 3425 4563 
L 3425 3794 
L 3072 3794 
Q 3034 4109 2831 4275 
Q 2628 4441 2284 4441 
Q 1678 4441 1381 3981 
Q 1084 3522 1075 2569 
z
" transform="scale(0.015625)"/>
       </defs>
       <use xlink:href="#DejaVuSerif-35"/>
       <use xlink:href="#DejaVuSerif-36" transform="translate(63.623047 0)"/>
      </g>
     </g>
    </g>
    <g id="xtick_4">
     <g id="line2d_7">
      <path d="M 352.482907 131.215245 
L 352.482907 41.256 
" clip-path="url(#p0e3a311120)" style="fill: none; stroke: #e6e1d8; stroke-width: 0.8; stroke-linecap: square"/>
     </g>
     <g id="line2d_8"/>
     <g id="text_4">
      <!-- 58 -->
      <g style="fill: #2b2b2b" transform="translate(346.120407 142.313683) scale(0.1 -0.1)">
       <defs>
        <path id="DejaVuSerif-38" d="M 2981 1275 
Q 2981 1775 2732 2051 
Q 2484 2328 2034 2328 
Q 1584 2328 1336 2051 
Q 1088 1775 1088 1275 
Q 1088 772 1336 495 
Q 1584 219 2034 219 
Q 2484 219 2732 495 
Q 2981 772 2981 1275 
z
M 2853 3541 
Q 2853 3966 2637 4203 
Q 2422 4441 2034 4441 
Q 1650 4441 1433 4203 
Q 1216 3966 1216 3541 
Q 1216 3113 1433 2875 
Q 1650 2638 2034 2638 
Q 2422 2638 2637 2875 
Q 2853 3113 2853 3541 
z
M 2516 2484 
Q 3047 2413 3344 2092 
Q 3641 1772 3641 1275 
Q 3641 619 3225 264 
Q 2809 -91 2034 -91 
Q 1263 -91 845 264 
Q 428 619 428 1275 
Q 428 1772 725 2092 
Q 1022 2413 1556 2484 
Q 1084 2569 832 2842 
Q 581 3116 581 3541 
Q 581 4103 968 4426 
Q 1356 4750 2034 4750 
Q 2713 4750 3100 4426 
Q 3488 4103 3488 3541 
Q 3488 3116 3236 2842 
Q 2984 2569 2516 2484 
z
" transform="scale(0.015625)"/>
       </defs>
       <use xlink:href="#DejaVuSerif-35"/>
       <use xlink:href="#DejaVuSerif-38" transform="translate(63.623047 0)"/>
      </g>
     </g>
    </g>
    <g id="xtick_5">
     <g id="line2d_9">
      <path d="M 424.142252 131.215245 
L 424.142252 41.256 
" clip-path="url(#p0e3a311120)" style="fill: none; stroke: #e6e1d8; stroke-width: 0.8; stroke-linecap: square"/>
     </g>
     <g id="line2d_10"/>
     <g id="text_5">
      <!-- 60 -->
      <g style="fill: #2b2b2b" transform="translate(417.779752 142.313683) scale(0.1 -0.1)">
       <defs>
        <path id="DejaVuSerif-30" d="M 2034 219 
Q 2513 219 2750 744 
Q 2988 1269 2988 2328 
Q 2988 3391 2750 3916 
Q 2513 4441 2034 4441 
Q 1556 4441 1318 3916 
Q 1081 3391 1081 2328 
Q 1081 1269 1318 744 
Q 1556 219 2034 219 
z
M 2034 -91 
Q 1275 -91 848 546 
Q 422 1184 422 2328 
Q 422 3475 848 4112 
Q 1275 4750 2034 4750 
Q 2797 4750 3222 4112 
Q 3647 3475 3647 2328 
Q 3647 1184 3222 546 
Q 2797 -91 2034 -91 
z
" transform="scale(0.015625)"/>
       </defs>
       <use xlink:href="#DejaVuSerif-36"/>
       <use xlink:href="#DejaVuSerif-30" transform="translate(63.623047 0)"/>
      </g>
     </g>
    </g>
   </g>
   <g id="matplotlib.axis_2">
    <g id="ytick_1">
     <g id="line2d_11"/>
     <g id="text_6">
      <!-- haiku-4-5 -->
      <g style="fill: #2b2b2b" transform="translate(13.655625 110.860046) scale(0.11 -0.11)">
       <defs>
        <path id="DejaVuSerif-68" d="M 263 0 
L 263 331 
L 781 331 
L 781 4531 
L 231 4531 
L 231 4863 
L 1356 4863 
L 1356 2731 
Q 1516 3069 1770 3241 
Q 2025 3413 2363 3413 
Q 2913 3413 3172 3097 
Q 3431 2781 3431 2113 
L 3431 331 
L 3944 331 
L 3944 0 
L 2356 0 
L 2356 331 
L 2853 331 
L 2853 1931 
Q 2853 2541 2704 2764 
Q 2556 2988 2175 2988 
Q 1775 2988 1565 2697 
Q 1356 2406 1356 1850 
L 1356 331 
L 1856 331 
L 1856 0 
L 263 0 
z
" transform="scale(0.015625)"/>
        <path id="DejaVuSerif-61" d="M 2547 1044 
L 2547 1747 
L 1806 1747 
Q 1378 1747 1168 1562 
Q 959 1378 959 997 
Q 959 650 1171 447 
Q 1384 244 1747 244 
Q 2106 244 2326 466 
Q 2547 688 2547 1044 
z
M 3122 2075 
L 3122 331 
L 3634 331 
L 3634 0 
L 2547 0 
L 2547 359 
Q 2356 128 2106 18 
Q 1856 -91 1522 -91 
Q 969 -91 644 203 
Q 319 497 319 997 
Q 319 1513 691 1797 
Q 1063 2081 1741 2081 
L 2547 2081 
L 2547 2309 
Q 2547 2688 2317 2895 
Q 2088 3103 1672 3103 
Q 1328 3103 1125 2947 
Q 922 2791 872 2484 
L 575 2484 
L 575 3156 
Q 875 3284 1158 3348 
Q 1441 3413 1709 3413 
Q 2400 3413 2761 3070 
Q 3122 2728 3122 2075 
z
" transform="scale(0.015625)"/>
        <path id="DejaVuSerif-69" d="M 622 4353 
Q 622 4497 726 4603 
Q 831 4709 978 4709 
Q 1122 4709 1226 4603 
Q 1331 4497 1331 4353 
Q 1331 4206 1228 4103 
Q 1125 4000 978 4000 
Q 831 4000 726 4103 
Q 622 4206 622 4353 
z
M 1356 331 
L 1900 331 
L 1900 0 
L 231 0 
L 231 331 
L 781 331 
L 781 2988 
L 231 2988 
L 231 3322 
L 1356 3322 
L 1356 331 
z
" transform="scale(0.015625)"/>
        <path id="DejaVuSerif-6b" d="M 1831 0 
L 219 0 
L 219 331 
L 738 331 
L 738 4531 
L 184 4531 
L 184 4863 
L 1313 4863 
L 1313 1697 
L 2713 2988 
L 2234 2988 
L 2234 3322 
L 3738 3322 
L 3738 2988 
L 3169 2988 
L 2181 2075 
L 3444 331 
L 3922 331 
L 3922 0 
L 2284 0 
L 2284 331 
L 2759 331 
L 1766 1697 
L 1313 1275 
L 1313 331 
L 1831 331 
L 1831 0 
z
" transform="scale(0.015625)"/>
        <path id="DejaVuSerif-75" d="M 2266 3322 
L 3341 3322 
L 3341 331 
L 3884 331 
L 3884 0 
L 2766 0 
L 2766 588 
Q 2606 256 2353 82 
Q 2100 -91 1766 -91 
Q 1213 -91 952 223 
Q 691 538 691 1209 
L 691 2988 
L 172 2988 
L 172 3322 
L 1269 3322 
L 1269 1388 
Q 1269 781 1417 556 
Q 1566 331 1947 331 
Q 2347 331 2556 625 
Q 2766 919 2766 1478 
L 2766 2988 
L 2266 2988 
L 2266 3322 
z
" transform="scale(0.015625)"/>
        <path id="DejaVuSerif-2d" d="M 281 1959 
L 1881 1959 
L 1881 1472 
L 281 1472 
L 281 1959 
z
" transform="scale(0.015625)"/>
       </defs>
       <use xlink:href="#DejaVuSerif-68"/>
       <use xlink:href="#DejaVuSerif-61" transform="translate(64.404297 0)"/>
       <use xlink:href="#DejaVuSerif-69" transform="translate(124.023438 0)"/>
       <use xlink:href="#DejaVuSerif-6b" transform="translate(156.005859 0)"/>
       <use xlink:href="#DejaVuSerif-75" transform="translate(216.601562 0)"/>
       <use xlink:href="#DejaVuSerif-2d" transform="translate(281.005859 0)"/>
       <use xlink:href="#DejaVuSerif-34" transform="translate(314.794922 0)"/>
       <use xlink:href="#DejaVuSerif-2d" transform="translate(378.417969 0)"/>
       <use xlink:href="#DejaVuSerif-35" transform="translate(412.207031 0)"/>
      </g>
     </g>
    </g>
    <g id="ytick_2">
     <g id="line2d_12"/>
     <g id="text_7">
      <!-- sonnet-4-6 -->
      <g style="fill: #2b2b2b" transform="translate(7.2 69.96948) scale(0.11 -0.11)">
       <defs>
        <path id="DejaVuSerif-73" d="M 359 184 
L 359 959 
L 691 959 
Q 703 588 923 403 
Q 1144 219 1575 219 
Q 1963 219 2166 364 
Q 2369 509 2369 788 
Q 2369 1006 2220 1140 
Q 2072 1275 1594 1428 
L 1178 1569 
Q 750 1706 558 1912 
Q 366 2119 366 2438 
Q 366 2894 700 3153 
Q 1034 3413 1625 3413 
Q 1888 3413 2178 3344 
Q 2469 3275 2778 3144 
L 2778 2419 
L 2447 2419 
Q 2434 2741 2221 2922 
Q 2009 3103 1644 3103 
Q 1281 3103 1095 2975 
Q 909 2847 909 2591 
Q 909 2381 1050 2254 
Q 1191 2128 1613 1997 
L 2069 1856 
Q 2541 1709 2748 1489 
Q 2956 1269 2956 922 
Q 2956 450 2595 179 
Q 2234 -91 1600 -91 
Q 1278 -91 972 -22 
Q 666 47 359 184 
z
" transform="scale(0.015625)"/>
        <path id="DejaVuSerif-6f" d="M 1925 219 
Q 2388 219 2623 584 
Q 2859 950 2859 1663 
Q 2859 2375 2623 2739 
Q 2388 3103 1925 3103 
Q 1463 3103 1227 2739 
Q 991 2375 991 1663 
Q 991 950 1228 584 
Q 1466 219 1925 219 
z
M 1925 -91 
Q 1200 -91 759 389 
Q 319 869 319 1663 
Q 319 2456 758 2934 
Q 1197 3413 1925 3413 
Q 2653 3413 3092 2934 
Q 3531 2456 3531 1663 
Q 3531 869 3092 389 
Q 2653 -91 1925 -91 
z
" transform="scale(0.015625)"/>
        <path id="DejaVuSerif-6e" d="M 263 0 
L 263 331 
L 781 331 
L 781 2988 
L 231 2988 
L 231 3322 
L 1356 3322 
L 1356 2731 
Q 1516 3069 1770 3241 
Q 2025 3413 2363 3413 
Q 2913 3413 3172 3097 
Q 3431 2781 3431 2113 
L 3431 331 
L 3944 331 
L 3944 0 
L 2356 0 
L 2356 331 
L 2853 331 
L 2853 1931 
Q 2853 2541 2703 2767 
Q 2553 2994 2175 2994 
Q 1775 2994 1565 2701 
Q 1356 2409 1356 1850 
L 1356 331 
L 1856 331 
L 1856 0 
L 263 0 
z
" transform="scale(0.015625)"/>
        <path id="DejaVuSerif-65" d="M 3469 1600 
L 991 1600 
L 991 1575 
Q 991 903 1244 561 
Q 1497 219 1991 219 
Q 2369 219 2611 417 
Q 2853 616 2950 1006 
L 3413 1006 
Q 3275 459 2904 184 
Q 2534 -91 1931 -91 
Q 1203 -91 761 389 
Q 319 869 319 1663 
Q 319 2450 753 2931 
Q 1188 3413 1894 3413 
Q 2647 3413 3050 2948 
Q 3453 2484 3469 1600 
z
M 2791 1931 
Q 2772 2513 2545 2808 
Q 2319 3103 1894 3103 
Q 1497 3103 1269 2806 
Q 1041 2509 991 1931 
L 2791 1931 
z
" transform="scale(0.015625)"/>
        <path id="DejaVuSerif-74" d="M 691 2988 
L 184 2988 
L 184 3322 
L 691 3322 
L 691 4353 
L 1269 4353 
L 1269 3322 
L 2350 3322 
L 2350 2988 
L 1269 2988 
L 1269 878 
Q 1269 456 1350 337 
Q 1431 219 1650 219 
Q 1875 219 1978 351 
Q 2081 484 2088 781 
L 2522 781 
Q 2497 328 2275 118 
Q 2053 -91 1600 -91 
Q 1103 -91 897 129 
Q 691 350 691 878 
L 691 2988 
z
" transform="scale(0.015625)"/>
       </defs>
       <use xlink:href="#DejaVuSerif-73"/>
       <use xlink:href="#DejaVuSerif-6f" transform="translate(51.318359 0)"/>
       <use xlink:href="#DejaVuSerif-6e" transform="translate(111.523438 0)"/>
       <use xlink:href="#DejaVuSerif-6e" transform="translate(175.927734 0)"/>
       <use xlink:href="#DejaVuSerif-65" transform="translate(240.332031 0)"/>
       <use xlink:href="#DejaVuSerif-74" transform="translate(299.511719 0)"/>
       <use xlink:href="#DejaVuSerif-2d" transform="translate(339.697266 0)"/>
       <use xlink:href="#DejaVuSerif-34" transform="translate(373.486328 0)"/>
       <use xlink:href="#DejaVuSerif-2d" transform="translate(437.109375 0)"/>
       <use xlink:href="#DejaVuSerif-36" transform="translate(470.898438 0)"/>
      </g>
     </g>
    </g>
   </g>
   <g id="line2d_13">
    <path d="M 88.77652 106.680906 
L 257.534276 106.680906 
" clip-path="url(#p0e3a311120)" style="fill: none; stroke: #7a1f1f; stroke-width: 2.2; stroke-linecap: round"/>
   </g>
   <g id="line2d_14">
    <path d="M 328.477027 65.79034 
L 474.303793 65.79034 
" clip-path="url(#p0e3a311120)" style="fill: none; stroke: #7a1f1f; stroke-width: 2.2; stroke-linecap: round"/>
   </g>
   <g id="patch_3">
    <path d="M 69.500156 131.215245 
L 493.580156 131.215245 
" style="fill: none; stroke: #8a8580; stroke-width: 0.8; stroke-linejoin: miter; stroke-linecap: square"/>
   </g>
   <g id="line2d_15">
    <defs>
     <path id="mdde493d395" d="M 0 5 
L 0 -5 
" style="stroke: #7a1f1f; stroke-width: 2.2"/>
    </defs>
    <g clip-path="url(#p0e3a311120)">
     <use xlink:href="#mdde493d395" x="88.77652" y="106.680906" style="fill: #7a1f1f; stroke: #7a1f1f; stroke-width: 2.2"/>
     <use xlink:href="#mdde493d395" x="257.534276" y="106.680906" style="fill: #7a1f1f; stroke: #7a1f1f; stroke-width: 2.2"/>
    </g>
   </g>
   <g id="text_8">
    <!-- 52.9 -->
    <g style="fill: #2b2b2b" transform="translate(159.495313 97.680906) scale(0.105 -0.105)">
     <defs>
      <path id="DejaVuSerif-2e" d="M 603 325 
Q 603 500 722 622 
Q 841 744 1019 744 
Q 1191 744 1312 622 
Q 1434 500 1434 325 
Q 1434 153 1312 31 
Q 1191 -91 1019 -91 
Q 841 -91 722 29 
Q 603 150 603 325 
z
" transform="scale(0.015625)"/>
      <path id="DejaVuSerif-39" d="M 2994 2091 
Q 2784 1856 2512 1740 
Q 2241 1625 1900 1625 
Q 1206 1625 804 2044 
Q 403 2463 403 3188 
Q 403 3897 839 4323 
Q 1275 4750 2003 4750 
Q 2794 4750 3217 4161 
Q 3641 3572 3641 2478 
Q 3641 1253 3137 581 
Q 2634 -91 1722 -91 
Q 1475 -91 1203 -44 
Q 931 3 647 97 
L 647 872 
L 997 872 
Q 1038 556 1241 387 
Q 1444 219 1784 219 
Q 2391 219 2687 676 
Q 2984 1134 2994 2091 
z
M 1978 4441 
Q 1534 4441 1298 4117 
Q 1063 3794 1063 3188 
Q 1063 2581 1298 2256 
Q 1534 1931 1978 1931 
Q 2422 1931 2658 2245 
Q 2894 2559 2894 3150 
Q 2894 3772 2656 4106 
Q 2419 4441 1978 4441 
z
" transform="scale(0.015625)"/>
     </defs>
     <use xlink:href="#DejaVuSerif-35"/>
     <use xlink:href="#DejaVuSerif-32" transform="translate(63.623047 0)"/>
     <use xlink:href="#DejaVuSerif-2e" transform="translate(127.246094 0)"/>
     <use xlink:href="#DejaVuSerif-39" transform="translate(159.033203 0)"/>
    </g>
   </g>
   <g id="line2d_16">
    <g clip-path="url(#p0e3a311120)">
     <use xlink:href="#mdde493d395" x="328.477027" y="65.79034" style="fill: #7a1f1f; stroke: #7a1f1f; stroke-width: 2.2"/>
     <use xlink:href="#mdde493d395" x="474.303793" y="65.79034" style="fill: #7a1f1f; stroke: #7a1f1f; stroke-width: 2.2"/>
    </g>
   </g>
   <g id="text_9">
    <!-- 59.3 -->
    <g style="fill: #2b2b2b" transform="translate(386.297138 56.79034) scale(0.105 -0.105)">
     <defs>
      <path id="DejaVuSerif-33" d="M 622 4469 
Q 988 4606 1323 4678 
Q 1659 4750 1953 4750 
Q 2638 4750 3022 4454 
Q 3406 4159 3406 3634 
Q 3406 3213 3140 2930 
Q 2875 2647 2388 2547 
Q 2963 2466 3280 2130 
Q 3597 1794 3597 1259 
Q 3597 606 3158 257 
Q 2719 -91 1894 -91 
Q 1528 -91 1179 -12 
Q 831 66 488 225 
L 488 1131 
L 838 1131 
Q 869 681 1141 450 
Q 1413 219 1906 219 
Q 2384 219 2661 495 
Q 2938 772 2938 1253 
Q 2938 1803 2653 2086 
Q 2369 2369 1819 2369 
L 1522 2369 
L 1522 2688 
L 1678 2688 
Q 2225 2688 2498 2914 
Q 2772 3141 2772 3597 
Q 2772 4006 2547 4223 
Q 2322 4441 1900 4441 
Q 1478 4441 1245 4241 
Q 1013 4041 972 3647 
L 622 3647 
L 622 4469 
z
" transform="scale(0.015625)"/>
     </defs>
     <use xlink:href="#DejaVuSerif-35"/>
     <use xlink:href="#DejaVuSerif-39" transform="translate(63.623047 0)"/>
     <use xlink:href="#DejaVuSerif-2e" transform="translate(127.246094 0)"/>
     <use xlink:href="#DejaVuSerif-33" transform="translate(159.033203 0)"/>
    </g>
   </g>
   <g id="text_10">
    <!-- Δ 6.3  ·  paired bootstrap p≈0.0005  ·  significant -->
    <g style="fill: #7a1f1f" transform="translate(69.500156 168.998128) scale(0.095 -0.095)">
     <defs>
      <path id="DejaVuSerif-394" d="M 4350 0 
L 244 0 
L 2034 4666 
L 2559 4666 
L 4350 0 
z
M 3506 331 
L 2138 3909 
L 763 331 
L 3506 331 
z
" transform="scale(0.015625)"/>
      <path id="DejaVuSerif-20" transform="scale(0.015625)"/>
      <path id="DejaVuSerif-b7" d="M 594 2222 
Q 594 2397 714 2517 
Q 834 2638 1013 2638 
Q 1184 2638 1306 2516 
Q 1428 2394 1428 2222 
Q 1428 2047 1306 1926 
Q 1184 1806 1013 1806 
Q 834 1806 714 1925 
Q 594 2044 594 2222 
z
" transform="scale(0.015625)"/>
      <path id="DejaVuSerif-70" d="M 1313 1825 
L 1313 1497 
Q 1313 897 1542 583 
Q 1772 269 2209 269 
Q 2650 269 2876 622 
Q 3103 975 3103 1663 
Q 3103 2353 2876 2703 
Q 2650 3053 2209 3053 
Q 1772 3053 1542 2737 
Q 1313 2422 1313 1825 
z
M 738 2988 
L 184 2988 
L 184 3322 
L 1313 3322 
L 1313 2803 
Q 1481 3116 1742 3264 
Q 2003 3413 2388 3413 
Q 3000 3413 3387 2928 
Q 3775 2444 3775 1663 
Q 3775 881 3387 395 
Q 3000 -91 2388 -91 
Q 2003 -91 1742 57 
Q 1481 206 1313 519 
L 1313 -997 
L 1856 -997 
L 1856 -1331 
L 184 -1331 
L 184 -997 
L 738 -997 
L 738 2988 
z
" transform="scale(0.015625)"/>
      <path id="DejaVuSerif-72" d="M 3059 3328 
L 3059 2497 
L 2728 2497 
Q 2713 2744 2591 2866 
Q 2469 2988 2234 2988 
Q 1809 2988 1582 2694 
Q 1356 2400 1356 1850 
L 1356 331 
L 2022 331 
L 2022 0 
L 263 0 
L 263 331 
L 781 331 
L 781 2994 
L 231 2994 
L 231 3322 
L 1356 3322 
L 1356 2731 
Q 1525 3078 1790 3245 
Q 2056 3413 2438 3413 
Q 2578 3413 2733 3391 
Q 2888 3369 3059 3328 
z
" transform="scale(0.015625)"/>
      <path id="DejaVuSerif-64" d="M 3359 331 
L 3909 331 
L 3909 0 
L 2784 0 
L 2784 519 
Q 2616 206 2355 57 
Q 2094 -91 1709 -91 
Q 1097 -91 708 395 
Q 319 881 319 1663 
Q 319 2444 706 2928 
Q 1094 3413 1709 3413 
Q 2094 3413 2355 3264 
Q 2616 3116 2784 2803 
L 2784 4531 
L 2241 4531 
L 2241 4863 
L 3359 4863 
L 3359 331 
z
M 2784 1497 
L 2784 1825 
Q 2784 2422 2554 2737 
Q 2325 3053 1888 3053 
Q 1444 3053 1217 2703 
Q 991 2353 991 1663 
Q 991 975 1217 622 
Q 1444 269 1888 269 
Q 2325 269 2554 583 
Q 2784 897 2784 1497 
z
" transform="scale(0.015625)"/>
      <path id="DejaVuSerif-62" d="M 738 331 
L 738 4531 
L 184 4531 
L 184 4863 
L 1313 4863 
L 1313 2803 
Q 1481 3116 1742 3264 
Q 2003 3413 2388 3413 
Q 3000 3413 3387 2928 
Q 3775 2444 3775 1663 
Q 3775 881 3387 395 
Q 3000 -91 2388 -91 
Q 2003 -91 1742 57 
Q 1481 206 1313 519 
L 1313 0 
L 184 0 
L 184 331 
L 738 331 
z
M 1313 1497 
Q 1313 897 1542 583 
Q 1772 269 2209 269 
Q 2650 269 2876 622 
Q 3103 975 3103 1663 
Q 3103 2353 2876 2703 
Q 2650 3053 2209 3053 
Q 1772 3053 1542 2737 
Q 1313 2422 1313 1825 
L 1313 1497 
z
" transform="scale(0.015625)"/>
      <path id="DejaVuSerif-2248" d="M 4684 1913 
L 4684 1453 
Q 4375 1172 4092 1040 
Q 3809 909 3519 909 
Q 3231 909 2713 1106 
Q 2666 1125 2641 1134 
Q 2609 1147 2541 1172 
Q 2081 1350 1784 1350 
Q 1497 1350 1226 1236 
Q 956 1122 678 884 
L 678 1344 
Q 994 1625 1273 1753 
Q 1553 1881 1844 1881 
Q 2144 1881 2688 1675 
L 2719 1663 
Q 2753 1653 2816 1625 
Q 3269 1447 3572 1447 
Q 3859 1447 4134 1561 
Q 4409 1675 4684 1913 
z
M 4684 3128 
L 4684 2669 
Q 4378 2391 4095 2261 
Q 3813 2131 3519 2131 
Q 3219 2131 2675 2338 
L 2644 2350 
Q 2609 2363 2541 2388 
Q 2081 2566 1784 2566 
Q 1497 2566 1226 2452 
Q 956 2338 678 2100 
L 678 2559 
Q 994 2841 1273 2969 
Q 1553 3097 1844 3097 
Q 2144 3097 2688 2894 
L 2719 2881 
Q 2753 2869 2816 2841 
Q 3269 2663 3572 2663 
Q 3859 2663 4134 2777 
Q 4409 2891 4684 3128 
z
" transform="scale(0.015625)"/>
      <path id="DejaVuSerif-67" d="M 3359 2988 
L 3359 72 
Q 3359 -644 2965 -1033 
Q 2572 -1422 1844 -1422 
Q 1516 -1422 1216 -1362 
Q 916 -1303 641 -1184 
L 641 -488 
L 941 -488 
Q 997 -813 1206 -963 
Q 1416 -1113 1806 -1113 
Q 2313 -1113 2548 -827 
Q 2784 -541 2784 72 
L 2784 519 
Q 2616 206 2355 57 
Q 2094 -91 1709 -91 
Q 1097 -91 708 395 
Q 319 881 319 1663 
Q 319 2444 706 2928 
Q 1094 3413 1709 3413 
Q 2094 3413 2355 3264 
Q 2616 3116 2784 2803 
L 2784 3322 
L 3909 3322 
L 3909 2988 
L 3359 2988 
z
M 2784 1825 
Q 2784 2422 2554 2737 
Q 2325 3053 1888 3053 
Q 1444 3053 1217 2703 
Q 991 2353 991 1663 
Q 991 975 1217 622 
Q 1444 269 1888 269 
Q 2325 269 2554 583 
Q 2784 897 2784 1497 
L 2784 1825 
z
" transform="scale(0.015625)"/>
      <path id="DejaVuSerif-66" d="M 2753 4078 
L 2450 4078 
Q 2447 4313 2317 4434 
Q 2188 4556 1941 4556 
Q 1619 4556 1487 4379 
Q 1356 4203 1356 3750 
L 1356 3322 
L 2284 3322 
L 2284 2988 
L 1356 2988 
L 1356 331 
L 2094 331 
L 2094 0 
L 231 0 
L 231 331 
L 781 331 
L 781 2988 
L 231 2988 
L 231 3322 
L 781 3322 
L 781 3738 
Q 781 4294 1070 4578 
Q 1359 4863 1919 4863 
Q 2128 4863 2337 4825 
Q 2547 4788 2753 4709 
L 2753 4078 
z
" transform="scale(0.015625)"/>
      <path id="DejaVuSerif-63" d="M 3291 997 
Q 3169 466 2822 187 
Q 2475 -91 1925 -91 
Q 1200 -91 759 389 
Q 319 869 319 1663 
Q 319 2459 759 2936 
Q 1200 3413 1925 3413 
Q 2241 3413 2553 3339 
Q 2866 3266 3181 3116 
L 3181 2266 
L 2847 2266 
Q 2781 2703 2561 2903 
Q 2341 3103 1931 3103 
Q 1466 3103 1228 2742 
Q 991 2381 991 1663 
Q 991 944 1227 581 
Q 1463 219 1931 219 
Q 2303 219 2525 412 
Q 2747 606 2828 997 
L 3291 997 
z
" transform="scale(0.015625)"/>
     </defs>
     <use xlink:href="#DejaVuSerif-394"/>
     <use xlink:href="#DejaVuSerif-20" transform="translate(72.216797 0)"/>
     <use xlink:href="#DejaVuSerif-36" transform="translate(104.003906 0)"/>
     <use xlink:href="#DejaVuSerif-2e" transform="translate(167.626953 0)"/>
     <use xlink:href="#DejaVuSerif-33" transform="translate(199.414062 0)"/>
     <use xlink:href="#DejaVuSerif-20" transform="translate(263.037109 0)"/>
     <use xlink:href="#DejaVuSerif-20" transform="translate(294.824219 0)"/>
     <use xlink:href="#DejaVuSerif-b7" transform="translate(326.611328 0)"/>
     <use xlink:href="#DejaVuSerif-20" transform="translate(358.398438 0)"/>
     <use xlink:href="#DejaVuSerif-20" transform="translate(390.185547 0)"/>
     <use xlink:href="#DejaVuSerif-70" transform="translate(421.972656 0)"/>
     <use xlink:href="#DejaVuSerif-61" transform="translate(485.986328 0)"/>
     <use xlink:href="#DejaVuSerif-69" transform="translate(545.605469 0)"/>
     <use xlink:href="#DejaVuSerif-72" transform="translate(577.587891 0)"/>
     <use xlink:href="#DejaVuSerif-65" transform="translate(625.390625 0)"/>
     <use xlink:href="#DejaVuSerif-64" transform="translate(684.570312 0)"/>
     <use xlink:href="#DejaVuSerif-20" transform="translate(748.583984 0)"/>
     <use xlink:href="#DejaVuSerif-62" transform="translate(780.371094 0)"/>
     <use xlink:href="#DejaVuSerif-6f" transform="translate(844.384766 0)"/>
     <use xlink:href="#DejaVuSerif-6f" transform="translate(904.589844 0)"/>
     <use xlink:href="#DejaVuSerif-74" transform="translate(964.794922 0)"/>
     <use xlink:href="#DejaVuSerif-73" transform="translate(1004.980469 0)"/>
     <use xlink:href="#DejaVuSerif-74" transform="translate(1056.298828 0)"/>
     <use xlink:href="#DejaVuSerif-72" transform="translate(1096.484375 0)"/>
     <use xlink:href="#DejaVuSerif-61" transform="translate(1144.287109 0)"/>
     <use xlink:href="#DejaVuSerif-70" transform="translate(1203.90625 0)"/>
     <use xlink:href="#DejaVuSerif-20" transform="translate(1267.919922 0)"/>
     <use xlink:href="#DejaVuSerif-70" transform="translate(1299.707031 0)"/>
     <use xlink:href="#DejaVuSerif-2248" transform="translate(1363.720703 0)"/>
     <use xlink:href="#DejaVuSerif-30" transform="translate(1447.509766 0)"/>
     <use xlink:href="#DejaVuSerif-2e" transform="translate(1511.132812 0)"/>
     <use xlink:href="#DejaVuSerif-30" transform="translate(1542.919922 0)"/>
     <use xlink:href="#DejaVuSerif-30" transform="translate(1606.542969 0)"/>
     <use xlink:href="#DejaVuSerif-30" transform="translate(1670.166016 0)"/>
     <use xlink:href="#DejaVuSerif-35" transform="translate(1733.789062 0)"/>
     <use xlink:href="#DejaVuSerif-20" transform="translate(1797.412109 0)"/>
     <use xlink:href="#DejaVuSerif-20" transform="translate(1829.199219 0)"/>
     <use xlink:href="#DejaVuSerif-b7" transform="translate(1860.986328 0)"/>
     <use xlink:href="#DejaVuSerif-20" transform="translate(1892.773438 0)"/>
     <use xlink:href="#DejaVuSerif-20" transform="translate(1924.560547 0)"/>
     <use xlink:href="#DejaVuSerif-73" transform="translate(1956.347656 0)"/>
     <use xlink:href="#DejaVuSerif-69" transform="translate(2007.666016 0)"/>
     <use xlink:href="#DejaVuSerif-67" transform="translate(2039.648438 0)"/>
     <use xlink:href="#DejaVuSerif-6e" transform="translate(2103.662109 0)"/>
     <use xlink:href="#DejaVuSerif-69" transform="translate(2168.066406 0)"/>
     <use xlink:href="#DejaVuSerif-66" transform="translate(2200.048828 0)"/>
     <use xlink:href="#DejaVuSerif-69" transform="translate(2237.060547 0)"/>
     <use xlink:href="#DejaVuSerif-63" transform="translate(2269.042969 0)"/>
     <use xlink:href="#DejaVuSerif-61" transform="translate(2325.048828 0)"/>
     <use xlink:href="#DejaVuSerif-6e" transform="translate(2384.667969 0)"/>
     <use xlink:href="#DejaVuSerif-74" transform="translate(2449.072266 0)"/>
    </g>
   </g>
   <g id="text_11">
    <!-- Idea Quality  (0–100, higher = better solutions) -->
    <g style="fill: #2b2b2b" transform="translate(69.500156 33.256) scale(0.115 -0.115)">
     <defs>
      <path id="DejaVuSerif-49" d="M 1581 331 
L 2175 331 
L 2175 0 
L 353 0 
L 353 331 
L 947 331 
L 947 4331 
L 353 4331 
L 353 4666 
L 2175 4666 
L 2175 4331 
L 1581 4331 
L 1581 331 
z
" transform="scale(0.015625)"/>
      <path id="DejaVuSerif-51" d="M 2700 -91 
Q 1628 -91 993 567 
Q 359 1225 359 2328 
Q 359 2894 529 3339 
Q 700 3784 1050 4134 
Q 1356 4441 1750 4595 
Q 2144 4750 2625 4750 
Q 3641 4750 4266 4084 
Q 4891 3419 4891 2328 
Q 4891 1403 4422 773 
Q 3953 144 3128 -38 
Q 3297 -247 3539 -347 
Q 3781 -447 4122 -447 
L 4219 -447 
L 4219 -1025 
Q 3691 -1000 3314 -767 
Q 2938 -534 2700 -91 
z
M 2625 244 
Q 3391 244 3781 770 
Q 4172 1297 4172 2328 
Q 4172 3363 3781 3889 
Q 3391 4416 2625 4416 
Q 1856 4416 1465 3889 
Q 1075 3363 1075 2328 
Q 1075 1297 1465 770 
Q 1856 244 2625 244 
z
" transform="scale(0.015625)"/>
      <path id="DejaVuSerif-6c" d="M 1313 331 
L 1856 331 
L 1856 0 
L 184 0 
L 184 331 
L 738 331 
L 738 4531 
L 184 4531 
L 184 4863 
L 1313 4863 
L 1313 331 
z
" transform="scale(0.015625)"/>
      <path id="DejaVuSerif-79" d="M 1381 -609 
L 1600 -56 
L 359 2988 
L -19 2988 
L -19 3322 
L 1509 3322 
L 1509 2988 
L 978 2988 
L 1913 703 
L 2847 2988 
L 2350 2988 
L 2350 3322 
L 3597 3322 
L 3597 2988 
L 3225 2988 
L 1703 -750 
Q 1547 -1138 1356 -1280 
Q 1166 -1422 819 -1422 
Q 672 -1422 517 -1397 
Q 363 -1372 206 -1325 
L 206 -691 
L 500 -691 
Q 519 -903 608 -995 
Q 697 -1088 884 -1088 
Q 1056 -1088 1161 -992 
Q 1266 -897 1381 -609 
z
" transform="scale(0.015625)"/>
      <path id="DejaVuSerif-28" d="M 2041 -997 
Q 1281 -656 893 83 
Q 506 822 506 1931 
Q 506 3044 893 3783 
Q 1281 4522 2041 4863 
L 2041 4556 
Q 1559 4225 1350 3623 
Q 1141 3022 1141 1931 
Q 1141 844 1350 242 
Q 1559 -359 2041 -691 
L 2041 -997 
z
" transform="scale(0.015625)"/>
      <path id="DejaVuSerif-2013" d="M 281 1906 
L 2919 1906 
L 2919 1491 
L 281 1491 
L 281 1906 
z
" transform="scale(0.015625)"/>
      <path id="DejaVuSerif-31" d="M 909 0 
L 909 331 
L 1722 331 
L 1722 4213 
L 781 3603 
L 781 4013 
L 1919 4750 
L 2350 4750 
L 2350 331 
L 3163 331 
L 3163 0 
L 909 0 
z
" transform="scale(0.015625)"/>
      <path id="DejaVuSerif-2c" d="M 231 -622 
Q 525 -406 662 -114 
Q 800 178 800 594 
L 800 709 
L 1416 709 
Q 1391 175 1164 -208 
Q 938 -591 481 -872 
L 231 -622 
z
" transform="scale(0.015625)"/>
      <path id="DejaVuSerif-3d" d="M 678 2894 
L 4684 2894 
L 4684 2394 
L 678 2394 
L 678 2894 
z
M 678 1619 
L 4684 1619 
L 4684 1119 
L 678 1119 
L 678 1619 
z
" transform="scale(0.015625)"/>
      <path id="DejaVuSerif-29" d="M 453 -997 
L 453 -691 
Q 934 -359 1145 242 
Q 1356 844 1356 1931 
Q 1356 3022 1145 3623 
Q 934 4225 453 4556 
L 453 4863 
Q 1216 4522 1603 3783 
Q 1991 3044 1991 1931 
Q 1991 822 1603 83 
Q 1216 -656 453 -997 
z
" transform="scale(0.015625)"/>
     </defs>
     <use xlink:href="#DejaVuSerif-49"/>
     <use xlink:href="#DejaVuSerif-64" transform="translate(39.501953 0)"/>
     <use xlink:href="#DejaVuSerif-65" transform="translate(103.515625 0)"/>
     <use xlink:href="#DejaVuSerif-61" transform="translate(162.695312 0)"/>
     <use xlink:href="#DejaVuSerif-20" transform="translate(222.314453 0)"/>
     <use xlink:href="#DejaVuSerif-51" transform="translate(254.101562 0)"/>
     <use xlink:href="#DejaVuSerif-75" transform="translate(336.083984 0)"/>
     <use xlink:href="#DejaVuSerif-61" transform="translate(400.488281 0)"/>
     <use xlink:href="#DejaVuSerif-6c" transform="translate(460.107422 0)"/>
     <use xlink:href="#DejaVuSerif-69" transform="translate(492.089844 0)"/>
     <use xlink:href="#DejaVuSerif-74" transform="translate(524.072266 0)"/>
     <use xlink:href="#DejaVuSerif-79" transform="translate(564.257812 0)"/>
     <use xlink:href="#DejaVuSerif-20" transform="translate(620.751953 0)"/>
     <use xlink:href="#DejaVuSerif-20" transform="translate(652.539062 0)"/>
     <use xlink:href="#DejaVuSerif-28" transform="translate(684.326172 0)"/>
     <use xlink:href="#DejaVuSerif-30" transform="translate(723.339844 0)"/>
     <use xlink:href="#DejaVuSerif-2013" transform="translate(786.962891 0)"/>
     <use xlink:href="#DejaVuSerif-31" transform="translate(836.962891 0)"/>
     <use xlink:href="#DejaVuSerif-30" transform="translate(900.585938 0)"/>
     <use xlink:href="#DejaVuSerif-30" transform="translate(964.208984 0)"/>
     <use xlink:href="#DejaVuSerif-2c" transform="translate(1027.832031 0)"/>
     <use xlink:href="#DejaVuSerif-20" transform="translate(1059.619141 0)"/>
     <use xlink:href="#DejaVuSerif-68" transform="translate(1091.40625 0)"/>
     <use xlink:href="#DejaVuSerif-69" transform="translate(1155.810547 0)"/>
     <use xlink:href="#DejaVuSerif-67" transform="translate(1187.792969 0)"/>
     <use xlink:href="#DejaVuSerif-68" transform="translate(1251.806641 0)"/>
     <use xlink:href="#DejaVuSerif-65" transform="translate(1316.210938 0)"/>
     <use xlink:href="#DejaVuSerif-72" transform="translate(1375.390625 0)"/>
     <use xlink:href="#DejaVuSerif-20" transform="translate(1423.193359 0)"/>
     <use xlink:href="#DejaVuSerif-3d" transform="translate(1454.980469 0)"/>
     <use xlink:href="#DejaVuSerif-20" transform="translate(1538.769531 0)"/>
     <use xlink:href="#DejaVuSerif-62" transform="translate(1570.556641 0)"/>
     <use xlink:href="#DejaVuSerif-65" transform="translate(1634.570312 0)"/>
     <use xlink:href="#DejaVuSerif-74" transform="translate(1693.75 0)"/>
     <use xlink:href="#DejaVuSerif-74" transform="translate(1733.935547 0)"/>
     <use xlink:href="#DejaVuSerif-65" transform="translate(1774.121094 0)"/>
     <use xlink:href="#DejaVuSerif-72" transform="translate(1833.300781 0)"/>
     <use xlink:href="#DejaVuSerif-20" transform="translate(1881.103516 0)"/>
     <use xlink:href="#DejaVuSerif-73" transform="translate(1912.890625 0)"/>
     <use xlink:href="#DejaVuSerif-6f" transform="translate(1964.208984 0)"/>
     <use xlink:href="#DejaVuSerif-6c" transform="translate(2024.414062 0)"/>
     <use xlink:href="#DejaVuSerif-75" transform="translate(2056.396484 0)"/>
     <use xlink:href="#DejaVuSerif-74" transform="translate(2120.800781 0)"/>
     <use xlink:href="#DejaVuSerif-69" transform="translate(2160.986328 0)"/>
     <use xlink:href="#DejaVuSerif-6f" transform="translate(2192.96875 0)"/>
     <use xlink:href="#DejaVuSerif-6e" transform="translate(2253.173828 0)"/>
     <use xlink:href="#DejaVuSerif-73" transform="translate(2317.578125 0)"/>
     <use xlink:href="#DejaVuSerif-29" transform="translate(2368.896484 0)"/>
    </g>
   </g>
   <g id="line2d_17">
    <defs>
     <path id="mf4df36f8b0" d="M 0 4 
C 1.060812 4 2.078319 3.578535 2.828427 2.828427 
C 3.578535 2.078319 4 1.060812 4 0 
C 4 -1.060812 3.578535 -2.078319 2.828427 -2.828427 
C 2.078319 -3.578535 1.060812 -4 0 -4 
C -1.060812 -4 -2.078319 -3.578535 -2.828427 -2.828427 
C -3.578535 -2.078319 -4 -1.060812 -4 0 
C -4 1.060812 -3.578535 2.078319 -2.828427 2.828427 
C -2.078319 3.578535 -1.060812 4 0 4 
z
" style="stroke: #faf8f3; stroke-width: 1.2"/>
    </defs>
    <g clip-path="url(#p0e3a311120)">
     <use xlink:href="#mf4df36f8b0" x="171.184766" y="106.680906" style="fill: #7a1f1f; stroke: #faf8f3; stroke-width: 1.2"/>
    </g>
   </g>
   <g id="line2d_18">
    <g clip-path="url(#p0e3a311120)">
     <use xlink:href="#mf4df36f8b0" x="397.986591" y="65.79034" style="fill: #7a1f1f; stroke: #faf8f3; stroke-width: 1.2"/>
    </g>
   </g>
  </g>
  <g id="axes_2">
   <g id="patch_4">
    <path d="M 69.500156 279.648 
L 493.580156 279.648 
L 493.580156 189.688755 
L 69.500156 189.688755 
z
" style="fill: #faf8f3"/>
   </g>
   <g id="matplotlib.axis_3">
    <g id="xtick_6">
     <g id="line2d_19">
      <path d="M 75.539532 279.648 
L 75.539532 189.688755 
" clip-path="url(#p3c7fa15516)" style="fill: none; stroke: #e6e1d8; stroke-width: 0.8; stroke-linecap: square"/>
     </g>
     <g id="line2d_20"/>
     <g id="text_12">
      <!-- 93.0 -->
      <g style="fill: #2b2b2b" transform="translate(64.406719 290.746437) scale(0.1 -0.1)">
       <use xlink:href="#DejaVuSerif-39"/>
       <use xlink:href="#DejaVuSerif-33" transform="translate(63.623047 0)"/>
       <use xlink:href="#DejaVuSerif-2e" transform="translate(127.246094 0)"/>
       <use xlink:href="#DejaVuSerif-30" transform="translate(159.033203 0)"/>
      </g>
     </g>
    </g>
    <g id="xtick_7">
     <g id="line2d_21">
      <path d="M 158.270706 279.648 
L 158.270706 189.688755 
" clip-path="url(#p3c7fa15516)" style="fill: none; stroke: #e6e1d8; stroke-width: 0.8; stroke-linecap: square"/>
     </g>
     <g id="line2d_22"/>
     <g id="text_13">
      <!-- 93.5 -->
      <g style="fill: #2b2b2b" transform="translate(147.137894 290.746437) scale(0.1 -0.1)">
       <use xlink:href="#DejaVuSerif-39"/>
       <use xlink:href="#DejaVuSerif-33" transform="translate(63.623047 0)"/>
       <use xlink:href="#DejaVuSerif-2e" transform="translate(127.246094 0)"/>
       <use xlink:href="#DejaVuSerif-35" transform="translate(159.033203 0)"/>
      </g>
     </g>
    </g>
    <g id="xtick_8">
     <g id="line2d_23">
      <path d="M 241.001881 279.648 
L 241.001881 189.688755 
" clip-path="url(#p3c7fa15516)" style="fill: none; stroke: #e6e1d8; stroke-width: 0.8; stroke-linecap: square"/>
     </g>
     <g id="line2d_24"/>
     <g id="text_14">
      <!-- 94.0 -->
      <g style="fill: #2b2b2b" transform="translate(229.869068 290.746437) scale(0.1 -0.1)">
       <use xlink:href="#DejaVuSerif-39"/>
       <use xlink:href="#DejaVuSerif-34" transform="translate(63.623047 0)"/>
       <use xlink:href="#DejaVuSerif-2e" transform="translate(127.246094 0)"/>
       <use xlink:href="#DejaVuSerif-30" transform="translate(159.033203 0)"/>
      </g>
     </g>
    </g>
    <g id="xtick_9">
     <g id="line2d_25">
      <path d="M 323.733055 279.648 
L 323.733055 189.688755 
" clip-path="url(#p3c7fa15516)" style="fill: none; stroke: #e6e1d8; stroke-width: 0.8; stroke-linecap: square"/>
     </g>
     <g id="line2d_26"/>
     <g id="text_15">
      <!-- 94.5 -->
      <g style="fill: #2b2b2b" transform="translate(312.600243 290.746437) scale(0.1 -0.1)">
       <use xlink:href="#DejaVuSerif-39"/>
       <use xlink:href="#DejaVuSerif-34" transform="translate(63.623047 0)"/>
       <use xlink:href="#DejaVuSerif-2e" transform="translate(127.246094 0)"/>
       <use xlink:href="#DejaVuSerif-35" transform="translate(159.033203 0)"/>
      </g>
     </g>
    </g>
    <g id="xtick_10">
     <g id="line2d_27">
      <path d="M 406.46423 279.648 
L 406.46423 189.688755 
" clip-path="url(#p3c7fa15516)" style="fill: none; stroke: #e6e1d8; stroke-width: 0.8; stroke-linecap: square"/>
     </g>
     <g id="line2d_28"/>
     <g id="text_16">
      <!-- 95.0 -->
      <g style="fill: #2b2b2b" transform="translate(395.331417 290.746437) scale(0.1 -0.1)">
       <use xlink:href="#DejaVuSerif-39"/>
       <use xlink:href="#DejaVuSerif-35" transform="translate(63.623047 0)"/>
       <use xlink:href="#DejaVuSerif-2e" transform="translate(127.246094 0)"/>
       <use xlink:href="#DejaVuSerif-30" transform="translate(159.033203 0)"/>
      </g>
     </g>
    </g>
    <g id="xtick_11">
     <g id="line2d_29">
      <path d="M 489.195404 279.648 
L 489.195404 189.688755 
" clip-path="url(#p3c7fa15516)" style="fill: none; stroke: #e6e1d8; stroke-width: 0.8; stroke-linecap: square"/>
     </g>
     <g id="line2d_30"/>
     <g id="text_17">
      <!-- 95.5 -->
      <g style="fill: #2b2b2b" transform="translate(478.062592 290.746437) scale(0.1 -0.1)">
       <use xlink:href="#DejaVuSerif-39"/>
       <use xlink:href="#DejaVuSerif-35" transform="translate(63.623047 0)"/>
       <use xlink:href="#DejaVuSerif-2e" transform="translate(127.246094 0)"/>
       <use xlink:href="#DejaVuSerif-35" transform="translate(159.033203 0)"/>
      </g>
     </g>
    </g>
   </g>
   <g id="matplotlib.axis_4">
    <g id="ytick_3">
     <g id="line2d_31"/>
     <g id="text_18">
      <!-- sonnet-4-6 -->
      <g style="fill: #2b2b2b" transform="translate(7.2 259.292801) scale(0.11 -0.11)">
       <use xlink:href="#DejaVuSerif-73"/>
       <use xlink:href="#DejaVuSerif-6f" transform="translate(51.318359 0)"/>
       <use xlink:href="#DejaVuSerif-6e" transform="translate(111.523438 0)"/>
       <use xlink:href="#DejaVuSerif-6e" transform="translate(175.927734 0)"/>
       <use xlink:href="#DejaVuSerif-65" transform="translate(240.332031 0)"/>
       <use xlink:href="#DejaVuSerif-74" transform="translate(299.511719 0)"/>
       <use xlink:href="#DejaVuSerif-2d" transform="translate(339.697266 0)"/>
       <use xlink:href="#DejaVuSerif-34" transform="translate(373.486328 0)"/>
       <use xlink:href="#DejaVuSerif-2d" transform="translate(437.109375 0)"/>
       <use xlink:href="#DejaVuSerif-36" transform="translate(470.898438 0)"/>
      </g>
     </g>
    </g>
    <g id="ytick_4">
     <g id="line2d_32"/>
     <g id="text_19">
      <!-- haiku-4-5 -->
      <g style="fill: #2b2b2b" transform="translate(13.655625 218.402235) scale(0.11 -0.11)">
       <use xlink:href="#DejaVuSerif-68"/>
       <use xlink:href="#DejaVuSerif-61" transform="translate(64.404297 0)"/>
       <use xlink:href="#DejaVuSerif-69" transform="translate(124.023438 0)"/>
       <use xlink:href="#DejaVuSerif-6b" transform="translate(156.005859 0)"/>
       <use xlink:href="#DejaVuSerif-75" transform="translate(216.601562 0)"/>
       <use xlink:href="#DejaVuSerif-2d" transform="translate(281.005859 0)"/>
       <use xlink:href="#DejaVuSerif-34" transform="translate(314.794922 0)"/>
       <use xlink:href="#DejaVuSerif-2d" transform="translate(378.417969 0)"/>
       <use xlink:href="#DejaVuSerif-35" transform="translate(412.207031 0)"/>
      </g>
     </g>
    </g>
   </g>
   <g id="line2d_33">
    <path d="M 88.77652 255.11366 
L 456.102934 255.11366 
" clip-path="url(#p3c7fa15516)" style="fill: none; stroke: #8a8580; stroke-width: 2.2; stroke-linecap: round"/>
   </g>
   <g id="line2d_34">
    <path d="M 259.202739 214.223094 
L 474.303793 214.223094 
" clip-path="url(#p3c7fa15516)" style="fill: none; stroke: #8a8580; stroke-width: 2.2; stroke-linecap: round"/>
   </g>
   <g id="patch_5">
    <path d="M 69.500156 279.648 
L 493.580156 279.648 
" style="fill: none; stroke: #8a8580; stroke-width: 0.8; stroke-linejoin: miter; stroke-linecap: square"/>
   </g>
   <g id="line2d_35">
    <defs>
     <path id="m42962f1a75" d="M 0 5 
L 0 -5 
" style="stroke: #8a8580; stroke-width: 2.2"/>
    </defs>
    <g clip-path="url(#p3c7fa15516)">
     <use xlink:href="#m42962f1a75" x="88.77652" y="255.11366" style="fill: #8a8580; stroke: #8a8580; stroke-width: 2.2"/>
     <use xlink:href="#m42962f1a75" x="456.102934" y="255.11366" style="fill: #8a8580; stroke: #8a8580; stroke-width: 2.2"/>
    </g>
   </g>
   <g id="text_20">
    <!-- 94.2 -->
    <g style="fill: #2b2b2b" transform="translate(269.023391 246.11366) scale(0.105 -0.105)">
     <use xlink:href="#DejaVuSerif-39"/>
     <use xlink:href="#DejaVuSerif-34" transform="translate(63.623047 0)"/>
     <use xlink:href="#DejaVuSerif-2e" transform="translate(127.246094 0)"/>
     <use xlink:href="#DejaVuSerif-32" transform="translate(159.033203 0)"/>
    </g>
   </g>
   <g id="line2d_36">
    <g clip-path="url(#p3c7fa15516)">
     <use xlink:href="#m42962f1a75" x="259.202739" y="214.223094" style="fill: #8a8580; stroke: #8a8580; stroke-width: 2.2"/>
     <use xlink:href="#m42962f1a75" x="474.303793" y="214.223094" style="fill: #8a8580; stroke: #8a8580; stroke-width: 2.2"/>
    </g>
   </g>
   <g id="text_21">
    <!-- 94.8 -->
    <g style="fill: #2b2b2b" transform="translate(366.646177 205.223094) scale(0.105 -0.105)">
     <use xlink:href="#DejaVuSerif-39"/>
     <use xlink:href="#DejaVuSerif-34" transform="translate(63.623047 0)"/>
     <use xlink:href="#DejaVuSerif-2e" transform="translate(127.246094 0)"/>
     <use xlink:href="#DejaVuSerif-38" transform="translate(159.033203 0)"/>
    </g>
   </g>
   <g id="text_22">
    <!-- overlapping CIs → ranking is a tie -->
    <g style="fill: #8a8580" transform="translate(69.500156 317.430883) scale(0.095 -0.095)">
     <defs>
      <path id="DejaVuSerif-76" d="M 1581 0 
L 359 2988 
L -19 2988 
L -19 3322 
L 1509 3322 
L 1509 2988 
L 978 2988 
L 1913 703 
L 2847 2988 
L 2350 2988 
L 2350 3322 
L 3597 3322 
L 3597 2988 
L 3225 2988 
L 2003 0 
L 1581 0 
z
" transform="scale(0.015625)"/>
      <path id="DejaVuSerif-43" d="M 4513 1234 
Q 4306 581 3820 245 
Q 3334 -91 2591 -91 
Q 2134 -91 1743 65 
Q 1353 222 1050 525 
Q 700 875 529 1320 
Q 359 1766 359 2328 
Q 359 3416 987 4083 
Q 1616 4750 2644 4750 
Q 3025 4750 3456 4650 
Q 3888 4550 4384 4347 
L 4384 3272 
L 4031 3272 
Q 3916 3859 3567 4137 
Q 3219 4416 2591 4416 
Q 1844 4416 1459 3886 
Q 1075 3356 1075 2328 
Q 1075 1303 1459 773 
Q 1844 244 2591 244 
Q 3113 244 3450 492 
Q 3788 741 3938 1234 
L 4513 1234 
z
" transform="scale(0.015625)"/>
      <path id="DejaVuSerif-2192" d="M 366 2322 
L 4391 2322 
L 3788 3375 
L 3822 3375 
L 5125 2084 
L 5125 2053 
L 3822 763 
L 3788 763 
L 4391 1816 
L 366 1816 
L 366 2322 
z
" transform="scale(0.015625)"/>
     </defs>
     <use xlink:href="#DejaVuSerif-6f"/>
     <use xlink:href="#DejaVuSerif-76" transform="translate(60.205078 0)"/>
     <use xlink:href="#DejaVuSerif-65" transform="translate(116.699219 0)"/>
     <use xlink:href="#DejaVuSerif-72" transform="translate(175.878906 0)"/>
     <use xlink:href="#DejaVuSerif-6c" transform="translate(223.681641 0)"/>
     <use xlink:href="#DejaVuSerif-61" transform="translate(255.664062 0)"/>
     <use xlink:href="#DejaVuSerif-70" transform="translate(315.283203 0)"/>
     <use xlink:href="#DejaVuSerif-70" transform="translate(379.296875 0)"/>
     <use xlink:href="#DejaVuSerif-69" transform="translate(443.310547 0)"/>
     <use xlink:href="#DejaVuSerif-6e" transform="translate(475.292969 0)"/>
     <use xlink:href="#DejaVuSerif-67" transform="translate(539.697266 0)"/>
     <use xlink:href="#DejaVuSerif-20" transform="translate(603.710938 0)"/>
     <use xlink:href="#DejaVuSerif-43" transform="translate(635.498047 0)"/>
     <use xlink:href="#DejaVuSerif-49" transform="translate(712.011719 0)"/>
     <use xlink:href="#DejaVuSerif-73" transform="translate(751.513672 0)"/>
     <use xlink:href="#DejaVuSerif-20" transform="translate(802.832031 0)"/>
     <use xlink:href="#DejaVuSerif-2192" transform="translate(834.619141 0)"/>
     <use xlink:href="#DejaVuSerif-20" transform="translate(918.408203 0)"/>
     <use xlink:href="#DejaVuSerif-72" transform="translate(950.195312 0)"/>
     <use xlink:href="#DejaVuSerif-61" transform="translate(997.998047 0)"/>
     <use xlink:href="#DejaVuSerif-6e" transform="translate(1057.617188 0)"/>
     <use xlink:href="#DejaVuSerif-6b" transform="translate(1122.021484 0)"/>
     <use xlink:href="#DejaVuSerif-69" transform="translate(1182.617188 0)"/>
     <use xlink:href="#DejaVuSerif-6e" transform="translate(1214.599609 0)"/>
     <use xlink:href="#DejaVuSerif-67" transform="translate(1279.003906 0)"/>
     <use xlink:href="#DejaVuSerif-20" transform="translate(1343.017578 0)"/>
     <use xlink:href="#DejaVuSerif-69" transform="translate(1374.804688 0)"/>
     <use xlink:href="#DejaVuSerif-73" transform="translate(1406.787109 0)"/>
     <use xlink:href="#DejaVuSerif-20" transform="translate(1458.105469 0)"/>
     <use xlink:href="#DejaVuSerif-61" transform="translate(1489.892578 0)"/>
     <use xlink:href="#DejaVuSerif-20" transform="translate(1549.511719 0)"/>
     <use xlink:href="#DejaVuSerif-74" transform="translate(1581.298828 0)"/>
     <use xlink:href="#DejaVuSerif-69" transform="translate(1621.484375 0)"/>
     <use xlink:href="#DejaVuSerif-65" transform="translate(1653.466797 0)"/>
    </g>
   </g>
   <g id="text_23">
    <!-- Portfolio Diversity  (diagnostic, not a quality measure) -->
    <g style="fill: #2b2b2b" transform="translate(69.500156 181.688755) scale(0.115 -0.115)">
     <defs>
      <path id="DejaVuSerif-50" d="M 1581 2375 
L 2406 2375 
Q 2872 2375 3115 2626 
Q 3359 2878 3359 3353 
Q 3359 3831 3115 4081 
Q 2872 4331 2406 4331 
L 1581 4331 
L 1581 2375 
z
M 353 0 
L 353 331 
L 947 331 
L 947 4331 
L 353 4331 
L 353 4666 
L 2559 4666 
Q 3259 4666 3668 4311 
Q 4078 3956 4078 3353 
Q 4078 2753 3668 2397 
Q 3259 2041 2559 2041 
L 1581 2041 
L 1581 331 
L 2303 331 
L 2303 0 
L 353 0 
z
" transform="scale(0.015625)"/>
      <path id="DejaVuSerif-44" d="M 1581 331 
L 2163 331 
Q 3072 331 3558 850 
Q 4044 1369 4044 2338 
Q 4044 3306 3559 3818 
Q 3075 4331 2163 4331 
L 1581 4331 
L 1581 331 
z
M 353 0 
L 353 331 
L 947 331 
L 947 4331 
L 353 4331 
L 353 4666 
L 2209 4666 
Q 3416 4666 4089 4050 
Q 4763 3434 4763 2338 
Q 4763 1238 4088 619 
Q 3413 0 2209 0 
L 353 0 
z
" transform="scale(0.015625)"/>
      <path id="DejaVuSerif-71" d="M 3359 2988 
L 3359 -997 
L 3909 -997 
L 3909 -1331 
L 2241 -1331 
L 2241 -997 
L 2784 -997 
L 2784 519 
Q 2616 206 2355 57 
Q 2094 -91 1709 -91 
Q 1097 -91 708 395 
Q 319 881 319 1663 
Q 319 2444 706 2928 
Q 1094 3413 1709 3413 
Q 2094 3413 2355 3264 
Q 2616 3116 2784 2803 
L 2784 3322 
L 3909 3322 
L 3909 2988 
L 3359 2988 
z
M 2784 1825 
Q 2784 2422 2554 2737 
Q 2325 3053 1888 3053 
Q 1444 3053 1217 2703 
Q 991 2353 991 1663 
Q 991 975 1217 622 
Q 1444 269 1888 269 
Q 2325 269 2554 583 
Q 2784 897 2784 1497 
L 2784 1825 
z
" transform="scale(0.015625)"/>
      <path id="DejaVuSerif-6d" d="M 3316 2675 
Q 3481 3041 3739 3227 
Q 3997 3413 4341 3413 
Q 4863 3413 5119 3089 
Q 5375 2766 5375 2113 
L 5375 331 
L 5894 331 
L 5894 0 
L 4300 0 
L 4300 331 
L 4800 331 
L 4800 2047 
Q 4800 2556 4650 2772 
Q 4500 2988 4153 2988 
Q 3769 2988 3567 2697 
Q 3366 2406 3366 1850 
L 3366 331 
L 3866 331 
L 3866 0 
L 2291 0 
L 2291 331 
L 2791 331 
L 2791 2069 
Q 2791 2566 2641 2777 
Q 2491 2988 2144 2988 
Q 1759 2988 1557 2697 
Q 1356 2406 1356 1850 
L 1356 331 
L 1856 331 
L 1856 0 
L 263 0 
L 263 331 
L 781 331 
L 781 2994 
L 231 2994 
L 231 3322 
L 1356 3322 
L 1356 2731 
Q 1516 3063 1762 3238 
Q 2009 3413 2322 3413 
Q 2709 3413 2968 3220 
Q 3228 3028 3316 2675 
z
" transform="scale(0.015625)"/>
     </defs>
     <use xlink:href="#DejaVuSerif-50"/>
     <use xlink:href="#DejaVuSerif-6f" transform="translate(63.285156 0)"/>
     <use xlink:href="#DejaVuSerif-72" transform="translate(123.490234 0)"/>
     <use xlink:href="#DejaVuSerif-74" transform="translate(171.292969 0)"/>
     <use xlink:href="#DejaVuSerif-66" transform="translate(211.478516 0)"/>
     <use xlink:href="#DejaVuSerif-6f" transform="translate(248.490234 0)"/>
     <use xlink:href="#DejaVuSerif-6c" transform="translate(308.695312 0)"/>
     <use xlink:href="#DejaVuSerif-69" transform="translate(340.677734 0)"/>
     <use xlink:href="#DejaVuSerif-6f" transform="translate(372.660156 0)"/>
     <use xlink:href="#DejaVuSerif-20" transform="translate(432.865234 0)"/>
     <use xlink:href="#DejaVuSerif-44" transform="translate(464.652344 0)"/>
     <use xlink:href="#DejaVuSerif-69" transform="translate(544.828125 0)"/>
     <use xlink:href="#DejaVuSerif-76" transform="translate(576.810547 0)"/>
     <use xlink:href="#DejaVuSerif-65" transform="translate(633.304688 0)"/>
     <use xlink:href="#DejaVuSerif-72" transform="translate(692.484375 0)"/>
     <use xlink:href="#DejaVuSerif-73" transform="translate(740.287109 0)"/>
     <use xlink:href="#DejaVuSerif-69" transform="translate(791.605469 0)"/>
     <use xlink:href="#DejaVuSerif-74" transform="translate(823.587891 0)"/>
     <use xlink:href="#DejaVuSerif-79" transform="translate(863.773438 0)"/>
     <use xlink:href="#DejaVuSerif-20" transform="translate(920.267578 0)"/>
     <use xlink:href="#DejaVuSerif-20" transform="translate(952.054688 0)"/>
     <use xlink:href="#DejaVuSerif-28" transform="translate(983.841797 0)"/>
     <use xlink:href="#DejaVuSerif-64" transform="translate(1022.855469 0)"/>
     <use xlink:href="#DejaVuSerif-69" transform="translate(1086.869141 0)"/>
     <use xlink:href="#DejaVuSerif-61" transform="translate(1118.851562 0)"/>
     <use xlink:href="#DejaVuSerif-67" transform="translate(1178.470703 0)"/>
     <use xlink:href="#DejaVuSerif-6e" transform="translate(1242.484375 0)"/>
     <use xlink:href="#DejaVuSerif-6f" transform="translate(1306.888672 0)"/>
     <use xlink:href="#DejaVuSerif-73" transform="translate(1367.09375 0)"/>
     <use xlink:href="#DejaVuSerif-74" transform="translate(1418.412109 0)"/>
     <use xlink:href="#DejaVuSerif-69" transform="translate(1458.597656 0)"/>
     <use xlink:href="#DejaVuSerif-63" transform="translate(1490.580078 0)"/>
     <use xlink:href="#DejaVuSerif-2c" transform="translate(1546.585938 0)"/>
     <use xlink:href="#DejaVuSerif-20" transform="translate(1578.373047 0)"/>
     <use xlink:href="#DejaVuSerif-6e" transform="translate(1610.160156 0)"/>
     <use xlink:href="#DejaVuSerif-6f" transform="translate(1674.564453 0)"/>
     <use xlink:href="#DejaVuSerif-74" transform="translate(1734.769531 0)"/>
     <use xlink:href="#DejaVuSerif-20" transform="translate(1774.955078 0)"/>
     <use xlink:href="#DejaVuSerif-61" transform="translate(1806.742188 0)"/>
     <use xlink:href="#DejaVuSerif-20" transform="translate(1866.361328 0)"/>
     <use xlink:href="#DejaVuSerif-71" transform="translate(1898.148438 0)"/>
     <use xlink:href="#DejaVuSerif-75" transform="translate(1962.162109 0)"/>
     <use xlink:href="#DejaVuSerif-61" transform="translate(2026.566406 0)"/>
     <use xlink:href="#DejaVuSerif-6c" transform="translate(2086.185547 0)"/>
     <use xlink:href="#DejaVuSerif-69" transform="translate(2118.167969 0)"/>
     <use xlink:href="#DejaVuSerif-74" transform="translate(2150.150391 0)"/>
     <use xlink:href="#DejaVuSerif-79" transform="translate(2190.335938 0)"/>
     <use xlink:href="#DejaVuSerif-20" transform="translate(2246.830078 0)"/>
     <use xlink:href="#DejaVuSerif-6d" transform="translate(2278.617188 0)"/>
     <use xlink:href="#DejaVuSerif-65" transform="translate(2373.441406 0)"/>
     <use xlink:href="#DejaVuSerif-61" transform="translate(2432.621094 0)"/>
     <use xlink:href="#DejaVuSerif-73" transform="translate(2492.240234 0)"/>
     <use xlink:href="#DejaVuSerif-75" transform="translate(2543.558594 0)"/>
     <use xlink:href="#DejaVuSerif-72" transform="translate(2607.962891 0)"/>
     <use xlink:href="#DejaVuSerif-65" transform="translate(2655.765625 0)"/>
     <use xlink:href="#DejaVuSerif-29" transform="translate(2714.945312 0)"/>
    </g>
   </g>
   <g id="line2d_37">
    <defs>
     <path id="ma0931e75c2" d="M 0 4 
C 1.060812 4 2.078319 3.578535 2.828427 2.828427 
C 3.578535 2.078319 4 1.060812 4 0 
C 4 -1.060812 3.578535 -2.078319 2.828427 -2.828427 
C 2.078319 -3.578535 1.060812 -4 0 -4 
C -1.060812 -4 -2.078319 -3.578535 -2.828427 -2.828427 
C -3.578535 -2.078319 -4 -1.060812 -4 0 
C -4 1.060812 -3.578535 2.078319 -2.828427 2.828427 
C -2.078319 3.578535 -1.060812 4 0 4 
z
" style="stroke: #faf8f3; stroke-width: 1.2"/>
    </defs>
    <g clip-path="url(#p3c7fa15516)">
     <use xlink:href="#ma0931e75c2" x="280.712845" y="255.11366" style="fill: #8a8580; stroke: #faf8f3; stroke-width: 1.2"/>
    </g>
   </g>
   <g id="line2d_38">
    <g clip-path="url(#p3c7fa15516)">
     <use xlink:href="#ma0931e75c2" x="378.33563" y="214.223094" style="fill: #8a8580; stroke: #faf8f3; stroke-width: 1.2"/>
    </g>
   </g>
  </g>
  <g id="text_24">
   <!-- CASE-Bench — 16 cases × 3 samples, disjoint Opus judge panel, 95% bootstrap CIs -->
   <g style="fill: #2b2b2b" transform="translate(7.666556 16.698047) scale(0.125 -0.125)">
    <defs>
     <path id="DejaVuSerif-41" d="M 1281 1691 
L 2994 1691 
L 2138 3909 
L 1281 1691 
z
M -38 0 
L -38 331 
L 372 331 
L 2034 4666 
L 2559 4666 
L 4225 331 
L 4684 331 
L 4684 0 
L 2988 0 
L 2988 331 
L 3506 331 
L 3116 1356 
L 1153 1356 
L 763 331 
L 1275 331 
L 1275 0 
L -38 0 
z
" transform="scale(0.015625)"/>
     <path id="DejaVuSerif-53" d="M 594 225 
L 594 1288 
L 953 1284 
Q 969 753 1261 498 
Q 1553 244 2150 244 
Q 2706 244 2998 464 
Q 3291 684 3291 1106 
Q 3291 1444 3114 1625 
Q 2938 1806 2369 1978 
L 1753 2163 
Q 1084 2366 811 2669 
Q 538 2972 538 3500 
Q 538 4094 959 4422 
Q 1381 4750 2144 4750 
Q 2469 4750 2856 4679 
Q 3244 4609 3681 4475 
L 3681 3481 
L 3328 3481 
Q 3275 3975 2998 4195 
Q 2722 4416 2156 4416 
Q 1663 4416 1405 4214 
Q 1147 4013 1147 3628 
Q 1147 3294 1340 3103 
Q 1534 2913 2163 2725 
L 2741 2553 
Q 3375 2363 3645 2067 
Q 3916 1772 3916 1275 
Q 3916 597 3481 253 
Q 3047 -91 2188 -91 
Q 1803 -91 1404 -12 
Q 1006 66 594 225 
z
" transform="scale(0.015625)"/>
     <path id="DejaVuSerif-45" d="M 353 0 
L 353 331 
L 947 331 
L 947 4331 
L 353 4331 
L 353 4666 
L 4109 4666 
L 4109 3628 
L 3725 3628 
L 3725 4281 
L 1581 4281 
L 1581 2719 
L 3109 2719 
L 3109 3303 
L 3494 3303 
L 3494 1753 
L 3109 1753 
L 3109 2338 
L 1581 2338 
L 1581 384 
L 3775 384 
L 3775 1038 
L 4159 1038 
L 4159 0 
L 353 0 
z
" transform="scale(0.015625)"/>
     <path id="DejaVuSerif-42" d="M 1581 331 
L 2516 331 
Q 3078 331 3337 575 
Q 3597 819 3597 1350 
Q 3597 1878 3339 2120 
Q 3081 2363 2516 2363 
L 1581 2363 
L 1581 331 
z
M 1581 2694 
L 2375 2694 
Q 2888 2694 3123 2891 
Q 3359 3088 3359 3513 
Q 3359 3941 3123 4136 
Q 2888 4331 2375 4331 
L 1581 4331 
L 1581 2694 
z
M 353 0 
L 353 331 
L 947 331 
L 947 4331 
L 353 4331 
L 353 4666 
L 2656 4666 
Q 3363 4666 3720 4377 
Q 4078 4088 4078 3513 
Q 4078 3097 3829 2850 
Q 3581 2603 3103 2547 
Q 3697 2472 4005 2167 
Q 4313 1863 4313 1350 
Q 4313 656 3875 328 
Q 3438 0 2509 0 
L 353 0 
z
" transform="scale(0.015625)"/>
     <path id="DejaVuSerif-2014" d="M 281 1906 
L 6119 1906 
L 6119 1491 
L 281 1491 
L 281 1906 
z
" transform="scale(0.015625)"/>
     <path id="DejaVuSerif-d7" d="M 4481 3450 
L 3034 2003 
L 4481 563 
L 4122 213 
L 2681 1650 
L 1241 213 
L 884 563 
L 2322 2003 
L 884 3450 
L 1241 3803 
L 2681 2363 
L 4122 3803 
L 4481 3450 
z
" transform="scale(0.015625)"/>
     <path id="DejaVuSerif-6a" d="M 641 4353 
Q 641 4497 745 4603 
Q 850 4709 997 4709 
Q 1141 4709 1245 4603 
Q 1350 4497 1350 4353 
Q 1350 4206 1248 4103 
Q 1147 4000 997 4000 
Q 850 4000 745 4103 
Q 641 4206 641 4353 
z
M 781 2988 
L 238 2988 
L 238 3322 
L 1356 3322 
L 1356 -325 
Q 1356 -838 1051 -1130 
Q 747 -1422 213 -1422 
Q -13 -1422 -217 -1370 
Q -422 -1319 -616 -1216 
L -616 -531 
L -319 -531 
Q -297 -831 -164 -972 
Q -31 -1113 225 -1113 
Q 509 -1113 645 -920 
Q 781 -728 781 -325 
L 781 2988 
z
" transform="scale(0.015625)"/>
     <path id="DejaVuSerif-4f" d="M 2625 244 
Q 3391 244 3781 770 
Q 4172 1297 4172 2328 
Q 4172 3363 3781 3889 
Q 3391 4416 2625 4416 
Q 1856 4416 1465 3889 
Q 1075 3363 1075 2328 
Q 1075 1297 1465 770 
Q 1856 244 2625 244 
z
M 2625 -91 
Q 2150 -91 1751 65 
Q 1353 222 1050 525 
Q 700 875 529 1319 
Q 359 1763 359 2328 
Q 359 2894 529 3339 
Q 700 3784 1050 4134 
Q 1356 4441 1750 4595 
Q 2144 4750 2625 4750 
Q 3641 4750 4266 4084 
Q 4891 3419 4891 2328 
Q 4891 1769 4719 1320 
Q 4547 872 4197 525 
Q 3891 219 3497 64 
Q 3103 -91 2625 -91 
z
" transform="scale(0.015625)"/>
     <path id="DejaVuSerif-25" d="M 1434 4459 
Q 1159 4459 1004 4200 
Q 850 3941 850 3475 
Q 850 3016 1008 2753 
Q 1166 2491 1434 2491 
Q 1700 2491 1854 2752 
Q 2009 3013 2009 3475 
Q 2009 3938 1854 4198 
Q 1700 4459 1434 4459 
z
M 4653 2169 
Q 4381 2169 4226 1906 
Q 4072 1644 4072 1178 
Q 4072 719 4228 458 
Q 4384 197 4653 197 
Q 4922 197 5075 458 
Q 5228 719 5228 1178 
Q 5228 1641 5073 1905 
Q 4919 2169 4653 2169 
z
M 4653 2450 
Q 5147 2450 5437 2106 
Q 5728 1763 5728 1178 
Q 5728 594 5436 251 
Q 5144 -91 4653 -91 
Q 4153 -91 3862 251 
Q 3572 594 3572 1178 
Q 3572 1766 3864 2108 
Q 4156 2450 4653 2450 
z
M 4263 4750 
L 4738 4750 
L 1819 -91 
L 1344 -91 
L 4263 4750 
z
M 1428 4750 
Q 1922 4750 2215 4408 
Q 2509 4066 2509 3481 
Q 2509 2891 2217 2550 
Q 1925 2209 1428 2209 
Q 931 2209 642 2551 
Q 353 2894 353 3481 
Q 353 4063 643 4406 
Q 934 4750 1428 4750 
z
" transform="scale(0.015625)"/>
    </defs>
    <use xlink:href="#DejaVuSerif-43"/>
    <use xlink:href="#DejaVuSerif-41" transform="translate(76.513672 0)"/>
    <use xlink:href="#DejaVuSerif-53" transform="translate(148.730469 0)"/>
    <use xlink:href="#DejaVuSerif-45" transform="translate(217.236328 0)"/>
    <use xlink:href="#DejaVuSerif-2d" transform="translate(292.109375 0)"/>
    <use xlink:href="#DejaVuSerif-42" transform="translate(325.898438 0)"/>
    <use xlink:href="#DejaVuSerif-65" transform="translate(399.384766 0)"/>
    <use xlink:href="#DejaVuSerif-6e" transform="translate(458.564453 0)"/>
    <use xlink:href="#DejaVuSerif-63" transform="translate(522.96875 0)"/>
    <use xlink:href="#DejaVuSerif-68" transform="translate(578.974609 0)"/>
    <use xlink:href="#DejaVuSerif-20" transform="translate(643.378906 0)"/>
    <use xlink:href="#DejaVuSerif-2014" transform="translate(675.166016 0)"/>
    <use xlink:href="#DejaVuSerif-20" transform="translate(775.166016 0)"/>
    <use xlink:href="#DejaVuSerif-31" transform="translate(806.953125 0)"/>
    <use xlink:href="#DejaVuSerif-36" transform="translate(870.576172 0)"/>
    <use xlink:href="#DejaVuSerif-20" transform="translate(934.199219 0)"/>
    <use xlink:href="#DejaVuSerif-63" transform="translate(965.986328 0)"/>
    <use xlink:href="#DejaVuSerif-61" transform="translate(1021.992188 0)"/>
    <use xlink:href="#DejaVuSerif-73" transform="translate(1081.611328 0)"/>
    <use xlink:href="#DejaVuSerif-65" transform="translate(1132.929688 0)"/>
    <use xlink:href="#DejaVuSerif-73" transform="translate(1192.109375 0)"/>
    <use xlink:href="#DejaVuSerif-20" transform="translate(1243.427734 0)"/>
    <use xlink:href="#DejaVuSerif-d7" transform="translate(1275.214844 0)"/>
    <use xlink:href="#DejaVuSerif-20" transform="translate(1359.003906 0)"/>
    <use xlink:href="#DejaVuSerif-33" transform="translate(1390.791016 0)"/>
    <use xlink:href="#DejaVuSerif-20" transform="translate(1454.414062 0)"/>
    <use xlink:href="#DejaVuSerif-73" transform="translate(1486.201172 0)"/>
    <use xlink:href="#DejaVuSerif-61" transform="translate(1537.519531 0)"/>
    <use xlink:href="#DejaVuSerif-6d" transform="translate(1597.138672 0)"/>
    <use xlink:href="#DejaVuSerif-70" transform="translate(1691.962891 0)"/>
    <use xlink:href="#DejaVuSerif-6c" transform="translate(1755.976562 0)"/>
    <use xlink:href="#DejaVuSerif-65" transform="translate(1787.958984 0)"/>
    <use xlink:href="#DejaVuSerif-73" transform="translate(1847.138672 0)"/>
    <use xlink:href="#DejaVuSerif-2c" transform="translate(1898.457031 0)"/>
    <use xlink:href="#DejaVuSerif-20" transform="translate(1930.244141 0)"/>
    <use xlink:href="#DejaVuSerif-64" transform="translate(1962.03125 0)"/>
    <use xlink:href="#DejaVuSerif-69" transform="translate(2026.044922 0)"/>
    <use xlink:href="#DejaVuSerif-73" transform="translate(2058.027344 0)"/>
    <use xlink:href="#DejaVuSerif-6a" transform="translate(2109.345703 0)"/>
    <use xlink:href="#DejaVuSerif-6f" transform="translate(2140.351562 0)"/>
    <use xlink:href="#DejaVuSerif-69" transform="translate(2200.556641 0)"/>
    <use xlink:href="#DejaVuSerif-6e" transform="translate(2232.539062 0)"/>
    <use xlink:href="#DejaVuSerif-74" transform="translate(2296.943359 0)"/>
    <use xlink:href="#DejaVuSerif-20" transform="translate(2337.128906 0)"/>
    <use xlink:href="#DejaVuSerif-4f" transform="translate(2368.916016 0)"/>
    <use xlink:href="#DejaVuSerif-70" transform="translate(2450.898438 0)"/>
    <use xlink:href="#DejaVuSerif-75" transform="translate(2514.912109 0)"/>
    <use xlink:href="#DejaVuSerif-73" transform="translate(2579.316406 0)"/>
    <use xlink:href="#DejaVuSerif-20" transform="translate(2630.634766 0)"/>
    <use xlink:href="#DejaVuSerif-6a" transform="translate(2662.421875 0)"/>
    <use xlink:href="#DejaVuSerif-75" transform="translate(2693.427734 0)"/>
    <use xlink:href="#DejaVuSerif-64" transform="translate(2757.832031 0)"/>
    <use xlink:href="#DejaVuSerif-67" transform="translate(2821.845703 0)"/>
    <use xlink:href="#DejaVuSerif-65" transform="translate(2885.859375 0)"/>
    <use xlink:href="#DejaVuSerif-20" transform="translate(2945.039062 0)"/>
    <use xlink:href="#DejaVuSerif-70" transform="translate(2976.826172 0)"/>
    <use xlink:href="#DejaVuSerif-61" transform="translate(3040.839844 0)"/>
    <use xlink:href="#DejaVuSerif-6e" transform="translate(3100.458984 0)"/>
    <use xlink:href="#DejaVuSerif-65" transform="translate(3164.863281 0)"/>
    <use xlink:href="#DejaVuSerif-6c" transform="translate(3224.042969 0)"/>
    <use xlink:href="#DejaVuSerif-2c" transform="translate(3256.025391 0)"/>
    <use xlink:href="#DejaVuSerif-20" transform="translate(3287.8125 0)"/>
    <use xlink:href="#DejaVuSerif-39" transform="translate(3319.599609 0)"/>
    <use xlink:href="#DejaVuSerif-35" transform="translate(3383.222656 0)"/>
    <use xlink:href="#DejaVuSerif-25" transform="translate(3446.845703 0)"/>
    <use xlink:href="#DejaVuSerif-20" transform="translate(3541.865234 0)"/>
    <use xlink:href="#DejaVuSerif-62" transform="translate(3573.652344 0)"/>
    <use xlink:href="#DejaVuSerif-6f" transform="translate(3637.666016 0)"/>
    <use xlink:href="#DejaVuSerif-6f" transform="translate(3697.871094 0)"/>
    <use xlink:href="#DejaVuSerif-74" transform="translate(3758.076172 0)"/>
    <use xlink:href="#DejaVuSerif-73" transform="translate(3798.261719 0)"/>
    <use xlink:href="#DejaVuSerif-74" transform="translate(3849.580078 0)"/>
    <use xlink:href="#DejaVuSerif-72" transform="translate(3889.765625 0)"/>
    <use xlink:href="#DejaVuSerif-61" transform="translate(3937.568359 0)"/>
    <use xlink:href="#DejaVuSerif-70" transform="translate(3997.1875 0)"/>
    <use xlink:href="#DejaVuSerif-20" transform="translate(4061.201172 0)"/>
    <use xlink:href="#DejaVuSerif-43" transform="translate(4092.988281 0)"/>
    <use xlink:href="#DejaVuSerif-49" transform="translate(4169.501953 0)"/>
    <use xlink:href="#DejaVuSerif-73" transform="translate(4209.003906 0)"/>
   </g>
  </g>
 </g>
 <defs>
  <clipPath id="p0e3a311120">
   <rect x="69.500156" y="41.256" width="424.08" height="89.959245"/>
  </clipPath>
  <clipPath id="p3c7fa15516">
   <rect x="69.500156" y="189.688755" width="424.08" height="89.959245"/>
  </clipPath>
 </defs>
</svg>
